<svg width="0" height="0" class="hidden">
  <symbol fill="#000000" xmlns="http://www.w3.org/2000/svg" viewBox="0 0 50 50" id="phone">
    <path d="M 14 3.9902344 C 8.4886661 3.9902344 4 8.4789008 4 13.990234 L 4 35.990234 C 4 41.501568 8.4886661 45.990234 14 45.990234 L 36 45.990234 C 41.511334 45.990234 46 41.501568 46 35.990234 L 46 13.990234 C 46 8.4789008 41.511334 3.9902344 36 3.9902344 L 14 3.9902344 z M 14 5.9902344 L 36 5.9902344 C 40.430666 5.9902344 44 9.5595687 44 13.990234 L 44 35.990234 C 44 40.4209 40.430666 43.990234 36 43.990234 L 14 43.990234 C 9.5693339 43.990234 6 40.4209 6 35.990234 L 6 13.990234 C 6 9.5595687 9.5693339 5.9902344 14 5.9902344 z M 18.048828 11.035156 C 16.003504 10.946776 14.45113 11.723922 13.474609 12.658203 C 12.986349 13.125343 12.633832 13.625179 12.392578 14.091797 C 12.151324 14.558415 11.998047 14.943108 11.998047 15.443359 C 11.998047 15.398799 11.987059 15.632684 11.980469 15.904297 C 11.973869 16.17591 11.97507 16.542045 12 16.984375 C 12.04996 17.869036 12.199897 19.065677 12.597656 20.484375 C 13.393174 23.321771 15.184446 27.043821 19.070312 30.929688 C 22.95618 34.815554 26.678014 36.606575 29.515625 37.402344 C 30.93443 37.800228 32.130881 37.949937 33.015625 38 C 33.457997 38.02503 33.822105 38.026091 34.09375 38.019531 C 34.365395 38.012931 34.601049 38.001953 34.556641 38.001953 C 35.056892 38.001953 35.441585 37.848676 35.908203 37.607422 C 36.374821 37.366168 36.874657 37.013651 37.341797 36.525391 C 38.276078 35.54887 39.053222 33.996496 38.964844 31.951172 C 38.922907 30.975693 38.381316 30.111858 37.582031 29.599609 C 36.96435 29.203814 36.005458 28.589415 34.753906 27.789062 C 33.301811 26.861299 31.44451 26.795029 29.929688 27.625 L 30.015625 27.582031 L 28.837891 28.087891 L 28.751953 28.148438 C 28.465693 28.349428 28.111154 28.386664 27.789062 28.251953 C 26.886813 27.874649 25.480985 27.133329 24.173828 25.826172 C 22.866671 24.519015 22.125351 23.113186 21.748047 22.210938 C 21.613336 21.888845 21.650568 21.534307 21.851562 21.248047 L 21.912109 21.162109 L 22.417969 19.984375 L 22.375 20.070312 C 23.204764 18.555868 23.140248 16.698619 22.210938 15.246094 C 21.410584 13.994542 20.796186 13.03565 20.400391 12.417969 C 19.888142 11.618684 19.02431 11.077096 18.048828 11.035156 z M 17.962891 13.033203 C 18.243409 13.045263 18.533045 13.209378 18.716797 13.496094 C 19.113001 14.114413 19.727696 15.07377 20.527344 16.324219 C 21.058033 17.153694 21.09533 18.243821 20.621094 19.109375 L 20.597656 19.152344 L 20.115234 20.279297 L 20.214844 20.097656 C 19.623835 20.939396 19.505055 22.032514 19.902344 22.982422 C 20.35304 24.060173 21.214923 25.695392 22.759766 27.240234 C 24.304608 28.785077 25.939827 29.64696 27.017578 30.097656 C 27.967486 30.494945 29.060604 30.376165 29.902344 29.785156 L 29.720703 29.884766 L 30.847656 29.402344 L 30.890625 29.378906 C 31.755801 28.904877 32.845877 28.944375 33.675781 29.474609 L 33.675781 29.472656 C 34.92623 30.272304 35.885587 30.886999 36.503906 31.283203 C 36.790622 31.466955 36.954736 31.756591 36.966797 32.037109 C 37.032417 33.555785 36.504954 34.506599 35.896484 35.142578 C 35.59225 35.460568 35.262335 35.691348 34.990234 35.832031 C 34.718133 35.972715 34.457889 36.001953 34.556641 36.001953 C 34.373232 36.001953 34.276633 36.013981 34.046875 36.019531 C 33.817117 36.025131 33.509144 36.025436 33.128906 36.003906 C 32.368431 35.960876 31.318757 35.831053 30.054688 35.476562 C 27.526547 34.767581 24.137509 33.168759 20.484375 29.515625 C 16.831241 25.862491 15.232169 22.473167 14.523438 19.945312 C 14.169071 18.681386 14.039037 17.631464 13.996094 16.871094 C 13.974624 16.490908 13.974899 16.18286 13.980469 15.953125 C 13.986069 15.72339 13.998047 15.626918 13.998047 15.443359 C 13.998047 15.542109 14.027287 15.281867 14.167969 15.009766 C 14.308652 14.737665 14.539432 14.40775 14.857422 14.103516 C 15.493401 13.495046 16.444215 12.967581 17.962891 13.033203 z"></path>
  </symbol>
  <symbol fill="none" xmlns="http://www.w3.org/2000/svg" viewBox="0 0 16 13" id="mail">
    <path d="M14.1552 0.19043H2.82102C1.80926 0.19043 0.986816 1.05402 0.986816 2.11641V10.2505C0.986816 11.3129 1.80926 12.1765 2.82102 12.1765H14.1521C15.1639 12.1765 15.9863 11.3129 15.9863 10.2505V2.11967C15.9894 1.05728 15.167 0.19043 14.1552 0.19043ZM15.1514 10.2505C15.1514 10.8273 14.7045 11.2966 14.1552 11.2966H2.82102C2.27169 11.2966 1.82478 10.8273 1.82478 10.2505V2.11967C1.82478 1.54285 2.27169 1.07358 2.82102 1.07358H14.1521C14.7014 1.07358 15.1483 1.54285 15.1483 2.11967V10.2505H15.1514Z" fill="#111111"></path>
    <path d="M10.4466 6.08244L14.115 2.62806C14.2857 2.46512 14.3012 2.18812 14.1461 2.00562C13.9909 1.82639 13.7271 1.81009 13.5533 1.97303L8.49448 6.74073L7.50755 5.81522C7.50445 5.81196 7.50134 5.8087 7.50134 5.80544C7.47962 5.78263 7.45789 5.76307 7.43306 5.74352L3.41706 1.96977C3.24326 1.80683 2.97946 1.82313 2.82428 2.00562C2.66911 2.18812 2.68462 2.46512 2.85842 2.62806L6.57027 6.11177L2.87394 9.74539C2.70635 9.91159 2.69704 10.1886 2.85532 10.3678C2.93912 10.4591 3.05084 10.508 3.16257 10.508C3.26499 10.508 3.36741 10.4689 3.4481 10.3906L7.2003 6.70488L8.21826 7.65973C8.29895 7.73468 8.39827 7.77053 8.49758 7.77053C8.5969 7.77053 8.69931 7.73142 8.7769 7.65647L9.8228 6.67229L13.5533 10.3939C13.634 10.4754 13.7395 10.5145 13.8419 10.5145C13.9536 10.5145 14.0623 10.4689 14.1461 10.3776C14.3043 10.2016 14.2981 9.92137 14.1305 9.75517L10.4466 6.08244Z" fill="#111111"></path>
  </symbol>
</svg>