<svg width="0" height="0" class="hidden">
  <symbol fill="none" xmlns="http://www.w3.org/2000/svg" viewBox="0 0 25 25" id="bag">
    <path d="M22.834 23.9558L21.3127 7.01419C21.2712 6.55153 20.8834 6.19715 20.419 6.19715H17.2818V4.78225C17.2818 2.14532 15.1366 0 12.4998 0C9.86313 0 7.71817 2.14532 7.71817 4.78225V6.19715H4.57886C4.11441 6.19715 3.72664 6.55153 3.68513 7.01419L2.15788 24.0224C2.13539 24.2734 2.21938 24.5221 2.38939 24.7081C2.55941 24.894 2.79977 24.9999 3.05162 24.9999H21.9464C21.9471 24.9999 21.948 24.9999 21.9488 24.9999C22.4444 24.9999 22.8461 24.5981 22.8461 24.1026C22.846 24.0527 22.8419 24.0035 22.834 23.9558ZM9.51282 4.78225C9.51282 3.13489 10.8528 1.79464 12.4999 1.79464C14.1472 1.79464 15.4873 3.13489 15.4873 4.78225V6.19715H9.51282V4.78225ZM4.03317 23.2054L5.39925 7.99179H7.71817V9.59644C7.71817 10.092 8.11981 10.4938 8.6155 10.4938C9.11118 10.4938 9.51282 10.092 9.51282 9.59644V7.99179H15.4873V9.59644C15.4873 10.092 15.889 10.4938 16.3846 10.4938C16.8803 10.4938 17.282 10.092 17.282 9.59644V7.99179H19.5987L20.9648 23.2054H4.03317Z" fill="black"></path>
  </symbol>
  <symbol fill="none" xmlns="http://www.w3.org/2000/svg" viewBox="0 0 25 25" id="heart">
    <path d="M22.7884 3.23115C21.3426 1.7854 19.4083 0.989258 17.3411 0.989258C15.5614 0.989258 13.8804 1.57949 12.5246 2.66611C11.1493 1.57949 9.46611 0.989258 7.70381 0.989258C5.62705 0.989258 3.6876 1.78574 2.24189 3.23115C0.796143 4.67661 0 6.61128 0 8.67813C0 10.7453 0.796143 12.6796 2.24189 14.125L11.8642 23.7474C12.0396 23.923 12.2698 24.0108 12.5 24.0108C12.7296 24.0108 12.9592 23.9233 13.1349 23.7485L22.765 14.1478C24.2065 12.6739 25 10.7369 25 8.69312C25 6.63047 24.217 4.69341 22.7884 3.23115ZM21.4871 12.8819L12.5009 21.8406L3.51348 12.8535C2.40767 11.7474 1.79854 10.2645 1.79854 8.67813C1.79854 7.0918 2.40767 5.60889 3.51348 4.50278C4.61958 3.39697 6.10762 2.78784 7.70381 2.78784C9.27456 2.78784 10.7656 3.39966 11.9014 4.50996C12.2533 4.85439 12.8177 4.85137 13.1658 4.50278C14.2719 3.39697 15.7545 2.78784 17.3411 2.78784C18.9277 2.78784 20.4104 3.39697 21.509 4.49556C22.6004 5.61216 23.2014 7.10288 23.2014 8.69312C23.2014 10.2642 22.5899 11.7548 21.4871 12.8819Z" fill="black"></path>
  </symbol>
  <symbol fill="none" xmlns="http://www.w3.org/2000/svg" viewBox="0 0 25 25" id="user">
    <path d="M12.5 11.8359C9.38476 11.8359 6.85059 9.30176 6.85059 6.18652C6.85059 3.07129 9.38476 0.537109 12.5 0.537109C15.6152 0.537109 18.1494 3.07129 18.1494 6.18652C18.1494 9.30176 15.6152 11.8359 12.5 11.8359ZM12.5 2.5293C10.4834 2.5293 8.84277 4.16992 8.84277 6.18652C8.84277 8.20312 10.4834 9.84375 12.5 9.84375C14.5166 9.84375 16.1572 8.20312 16.1572 6.18652C16.1572 4.16992 14.5166 2.5293 12.5 2.5293Z" fill="black"></path>
    <path d="M23.4668 24.4629H1.5332C0.981445 24.4629 0.537109 24.0186 0.537109 23.4668C0.537109 20.21 1.80664 17.1582 4.10645 14.873C5.59082 13.3984 7.68555 12.5537 9.84863 12.5537H15.1514C17.3193 12.5537 19.4092 13.3984 20.8936 14.873C23.1934 17.1582 24.4629 20.21 24.4629 23.4668C24.4629 24.0186 24.0186 24.4629 23.4668 24.4629ZM2.57812 22.4707H22.4219C22.1973 20.127 21.1719 17.959 19.4873 16.2891C18.374 15.1855 16.792 14.5508 15.1514 14.5508H9.84863C8.20312 14.5508 6.62598 15.1855 5.5127 16.2891C3.82812 17.959 2.80273 20.127 2.57812 22.4707Z" fill="black"></path>
  </symbol>
    <symbol fill="none" xmlns="http://www.w3.org/2000/svg" viewBox="0 0 25 25" id="search">
    <path d="M24.1699 22.7588L18.7939 17.3828C20.3125 15.542 21.1377 13.252 21.1377 10.8398C21.1377 8.08594 20.0684 5.50293 18.1201 3.55469C16.1768 1.60645 13.5889 0.537109 10.8398 0.537109C8.09082 0.537109 5.50293 1.60645 3.55469 3.55469C1.60645 5.49805 0.537109 8.08594 0.537109 10.8398C0.537109 13.5889 1.60645 16.1768 3.55469 18.125C5.49805 20.0684 8.08594 21.1426 10.8398 21.1426C13.2568 21.1426 15.5469 20.3174 17.3828 18.7988L22.7588 24.1699C23.1494 24.5605 23.7793 24.5605 24.1699 24.1699C24.5605 23.7793 24.5605 23.1494 24.1699 22.7588ZM4.96582 16.709C3.39355 15.1416 2.5293 13.0566 2.5293 10.8398C2.5293 8.62305 3.39355 6.5332 4.96094 4.96582C6.52832 3.39844 8.61328 2.53418 10.835 2.53418C13.0518 2.53418 15.1416 3.39844 16.709 4.96582C18.2764 6.5332 19.1406 8.61816 19.1406 10.8398C19.1406 13.0566 18.2764 15.1465 16.709 16.7139C15.1416 18.2812 13.0518 19.1455 10.835 19.1455C8.61816 19.1455 6.5332 18.2812 4.96582 16.709Z" fill="black"></path>
  </symbol>
   <symbol xmlns="http://www.w3.org/2000/svg" viewBox="0 0 24 24" id="burger">
    <path d="M 2 5 L 2 7 L 22 7 L 22 5 L 2 5 z M 2 11 L 2 13 L 22 13 L 22 11 L 2 11 z M 2 17 L 2 19 L 22 19 L 22 17 L 2 17 z"></path>
  </symbol>
</svg>