<svg width="0" height="0" class="hidden">
  <symbol fill="none" xmlns="http://www.w3.org/2000/svg" viewBox="0 0 51 51" id="shipping">
    <path d="M27.5519 11.0718V9.6175H30.4815V6.70887H27.5519V5.25455C27.5519 2.84882 25.5806 0.891602 23.1576 0.891602C20.7345 0.891602 18.7632 2.84882 18.7632 5.25455V11.0718C18.7632 13.4776 20.7345 15.4348 23.1576 15.4348C25.5806 15.4348 27.5519 13.4776 27.5519 11.0718ZM24.6224 11.0718C24.6224 11.8737 23.9653 12.5261 23.1576 12.5261C22.3499 12.5261 21.6928 11.8737 21.6928 11.0718V9.6175H24.6224V11.0718ZM24.6224 6.70887H21.6928V5.25455C21.6928 4.45264 22.3499 3.80024 23.1576 3.80024C23.9653 3.80024 24.6224 4.45264 24.6224 5.25455V6.70887Z" fill="#888888"></path>
    <path d="M43.3075 30.305C43.1733 29.3721 42.916 27.5845 42.4235 24.1607H45.1289V15.4348H40.7345C38.8249 15.4348 37.1967 16.6508 36.592 18.3434H27.3004C26.6959 16.6505 25.0668 15.4348 23.157 15.4348C22.6434 15.4348 22.1506 15.5235 21.6922 15.685V15.4348H3.91933V29.978H0.989746V32.8856H5.92366C2.91741 35.3045 0.989746 39.0134 0.989746 43.1638C0.989746 47.1833 4.26444 50.5323 8.31371 50.5323C11.913 50.5323 14.8318 47.9028 15.4928 44.6181H36.4849C37.1461 47.9034 40.0652 50.5323 43.664 50.5323C47.7123 50.5323 50.9879 47.1842 50.9879 43.1638V40.2552C50.988 35.5511 47.7558 31.4557 43.3075 30.305ZM40.7345 18.3434H42.1993V21.2521H40.7345C39.9268 21.2521 39.2697 20.5997 39.2697 19.7978C39.2697 18.9959 39.9268 18.3434 40.7345 18.3434ZM6.84892 18.3434H18.7626V21.2521H6.84892V18.3434ZM6.84892 24.1607H18.7626V29.978C16.3618 29.978 10.8366 29.978 6.84892 29.978V24.1607ZM8.31371 47.6237C6.43077 47.6237 4.77985 46.347 4.1702 44.6162H12.4571C11.8476 46.347 10.1967 47.6237 8.31371 47.6237ZM24.6217 41.7095H4.02245C4.72946 36.7289 9.01154 32.8866 14.1729 32.8866H24.6217V41.7095ZM30.4809 41.7095H27.5513V29.978C26.1749 29.978 24.529 29.978 23.157 29.978C22.3493 29.978 21.6922 29.3256 21.6922 28.5237V26.8192C22.1506 26.9806 22.6434 27.0694 23.157 27.0694H29.0161C29.8238 27.0694 30.4809 27.7218 30.4809 28.5237V41.7095ZM23.157 24.1607C22.3493 24.1607 21.6922 23.5083 21.6922 22.7064V19.7978C21.6922 18.9959 22.3493 18.3434 23.157 18.3434C23.9646 18.3434 24.6217 18.9959 24.6217 19.7978V21.2511H36.0891C35.4846 22.945 33.8555 24.1607 31.9457 24.1607C30.8502 24.1607 24.1155 24.1607 23.157 24.1607ZM36.3401 25.6111V31.4323C36.3401 33.3314 35.098 34.9985 33.4105 35.6264V28.5237C33.4105 27.9781 33.3082 27.456 33.1231 26.9741C34.316 26.7819 35.4132 26.3035 36.3401 25.6111ZM36.4875 41.7095H33.4105V38.6518C36.6909 37.9769 39.2697 35.0144 39.2697 31.4323V23.9106C39.3248 23.93 39.38 23.949 39.4361 23.9662C41.6347 39.2469 39.8874 27.1076 40.703 32.8087L41.7947 32.9648C44.1506 33.3017 46.1237 34.7808 47.1941 36.795C46.1464 36.2204 44.9433 35.8922 43.6641 35.8922C40.1271 35.8922 37.168 38.3944 36.4875 41.7095ZM43.6641 47.6237C41.282 47.6237 39.2697 45.5814 39.2697 43.1638C39.2697 41.4872 40.2278 40.0294 41.6283 39.2991L42.214 43.3694L45.1142 42.9582L44.5283 38.8861C46.5389 39.2857 48.0584 41.0517 48.0584 43.1638C48.0584 45.5814 46.0461 47.6237 43.6641 47.6237Z" fill="#888888"></path>
  </symbol>
  <symbol fill="none" xmlns="http://www.w3.org/2000/svg" viewBox="0 0 51 51" id="shield">
    <g clip-path="url(#clip0_3_575)">
      <path d="M47.2833 8.78883C43.7065 8.78883 40.7966 5.89969 40.7966 2.34863V0.891602H11.1582V2.34863C11.1582 5.89988 8.24827 8.78883 4.67163 8.78883H3.2041V18.4783C3.2041 25.4411 5.31663 32.1456 9.31357 37.8668C13.3105 43.588 18.895 47.9017 25.4633 50.3413L25.9775 50.5323L26.4917 50.3413C33.0601 47.9017 38.6446 43.5881 42.6414 37.8668C46.6383 32.1456 48.7508 25.4411 48.7508 18.4783V8.78883H47.2833ZM45.8159 18.4783H45.8158C45.8158 24.8447 43.8841 30.9747 40.2295 36.2059C36.68 41.2871 31.7604 45.1541 25.9774 47.4158C20.1945 45.154 15.2748 41.2871 11.7252 36.2059C8.07074 30.9748 6.13916 24.8447 6.13916 18.4783V11.5897C10.1615 10.9624 13.3474 7.79922 13.9792 3.80567H37.9758C38.6075 7.79922 41.7935 10.9624 45.8159 11.5897V18.4783Z" fill="#888888"></path>
      <path d="M32.5258 14.5803L22.8116 24.2252L19.4288 20.8666L13.2026 27.0483L22.8116 36.5885L38.752 20.762L32.5258 14.5803ZM17.3535 27.0485L19.4289 24.9879L22.8117 28.3465L32.5259 18.7017L34.6013 20.7622L22.8117 32.4676L17.3535 27.0485Z" fill="#888888"></path>
    </g>
    <defs>
      <clipPath id="clip0_3_575">
        <rect width="49.9984" height="49.6407" fill="white" transform="translate(0.978027 0.891602)"></rect>
      </clipPath>
    </defs>
  </symbol>
  <symbol fill="none" xmlns="http://www.w3.org/2000/svg" viewBox="0 0 50 51" id="money">
    <path d="M29.7908 13.0735L33.2166 15.5899C33.6023 15.8731 33.4074 16.4998 32.9198 16.5028L31.8447 16.5093C31.8436 16.5093 31.8427 16.5093 31.8416 16.5093C31.565 16.5093 31.3393 16.2871 31.3375 16.0125C31.3325 15.2093 30.6732 14.5606 29.8638 14.5672C29.0549 14.5721 28.4031 15.2273 28.408 16.0304C28.4177 17.5822 29.476 18.8876 30.9102 19.2896V19.3599C30.9102 20.1631 31.566 20.8143 32.3749 20.8143C33.1837 20.8143 33.8396 20.1631 33.8396 19.3599V19.2866C34.4102 19.1295 34.9327 18.8274 35.36 18.3977C36.0047 17.7494 36.3565 16.8908 36.3501 15.9776V15.9685C36.3428 14.9018 35.8227 13.8861 34.9589 13.2516L31.5331 10.7354C31.144 10.4495 31.3484 9.83368 31.8331 9.83368H32.9098C33.1878 9.83368 33.414 10.0579 33.414 10.3336C33.414 11.1368 34.0698 11.7879 34.8787 11.7879C35.6875 11.7879 36.3434 11.1368 36.3434 10.3336C36.3434 8.77407 35.2823 7.45665 33.8395 7.05313V6.98313C33.8395 6.17995 33.1836 5.52881 32.3748 5.52881C31.5659 5.52881 30.9101 6.17995 30.9101 6.98313V7.05119C29.4638 7.45248 28.3994 8.77155 28.3994 10.3336C28.3995 11.4093 28.9196 12.4335 29.7908 13.0735Z" fill="#888888"></path>
    <path d="M32.3756 25.4516C39.1974 25.4516 44.7472 19.9429 44.7472 13.1716C44.7472 6.40026 39.1973 0.891602 32.3756 0.891602C25.5538 0.891602 20.0039 6.40036 20.0039 13.1717C20.0039 19.943 25.5538 25.4516 32.3756 25.4516ZM32.3756 3.80024C37.582 3.80024 41.8177 8.00428 41.8177 13.1717C41.8177 18.339 37.582 22.5431 32.3756 22.5431C27.1692 22.5431 22.9334 18.339 22.9334 13.1717C22.9334 8.00428 27.1692 3.80024 32.3756 3.80024Z" fill="#888888"></path>
    <path d="M48.9578 28.7355C47.3736 26.7105 44.5135 26.3295 42.4548 27.7476L36.8817 31.4494C36.1072 30.0177 34.5844 29.0417 32.8359 29.0417H28.8603C26.8536 27.173 24.1745 26.1121 21.4111 26.1121C19.337 26.1121 17.3194 26.6938 15.5766 27.7944C14.0063 28.7862 12.7217 30.1561 11.8391 31.7735L11.0928 32.2266L10.8994 31.6651C10.6377 30.9053 9.80534 30.4997 9.03993 30.7594L0.958273 33.5011C0.193163 33.7607 -0.215808 34.5878 0.0459022 35.3478L4.93568 49.548C5.19748 50.3083 6.03017 50.7132 6.79518 50.4537L14.8768 47.7121C15.5986 47.4672 16.0714 46.6851 15.773 45.8184L28.5969 45.4243C32.0892 45.4196 35.4383 44.3548 38.2832 42.3444L47.9539 35.5148C50.171 33.9479 50.6287 30.8698 48.9578 28.7355ZM7.23384 47.2311L3.29179 35.7833L8.60127 33.982C9.17323 35.6431 11.953 43.7156 12.5433 45.43L7.23384 47.2311ZM46.2556 33.1447L36.5849 39.9744C34.2323 41.6369 31.462 42.5156 28.5736 42.5156C28.5586 42.5156 28.5434 42.5158 28.5283 42.5163L14.7814 42.9387L12.0638 35.0463L13.7156 34.0434C13.7159 34.0432 13.7162 34.0429 13.7166 34.0426C13.9598 33.8949 14.1499 33.678 14.2659 33.4433C15.614 30.7153 18.3519 29.0205 21.4111 29.0205C23.6218 29.0205 25.675 29.8992 27.1926 31.4947C27.4721 31.7886 27.8737 31.9501 28.2575 31.9501H32.8359C33.7511 31.9501 34.4956 32.6889 34.4956 33.597C34.4956 34.4957 33.7635 35.244 32.8359 35.244H24.5716C23.7627 35.244 23.1069 35.8951 23.1069 36.6983C23.1069 37.5015 23.7628 38.1526 24.5716 38.1526H32.8359C34.0627 38.1526 35.2153 37.6783 36.0804 36.8181C36.6857 36.2174 37.1004 35.4784 37.2961 34.6733L44.0948 30.1575C44.103 30.1521 44.1111 30.1465 44.1192 30.1409C44.9209 29.5849 46.0314 29.7362 46.6446 30.5199C47.2912 31.3459 47.1144 32.5379 46.2556 33.1447Z" fill="#888888"></path>
  </symbol>
  <symbol fill="none" xmlns="http://www.w3.org/2000/svg" viewBox="0 0 51 51" id="agent">
    <g clip-path="url(#clip0_3_592)">
      <path d="M47.26 40.1462L34.1822 35.89V31.4109C35.1162 30.0403 35.7459 28.4274 35.968 26.6815H38.3284C40.3896 26.6815 42.0666 25.0165 42.0666 22.97V18.9948C42.0666 18.2202 41.826 17.5005 41.4155 16.9048V16.2427C41.4155 7.77808 34.4794 0.891602 25.9538 0.891602C17.4282 0.891602 10.4921 7.77808 10.4921 16.2427V16.9048C10.0816 17.5006 9.84103 18.2203 9.84103 18.9948V22.97C9.84103 25.0165 11.518 26.6815 13.5793 26.6815H15.9397C16.1649 28.4517 16.8095 30.0848 17.7649 31.4676V35.8772L4.64754 40.1462C2.43872 40.8652 0.95459 42.899 0.95459 45.2068V50.5323H50.953V45.2068C50.953 42.899 49.4689 40.8652 47.26 40.1462ZM20.6945 34.3095C22.2274 35.2925 24.0286 35.8599 25.9538 35.8599C27.8957 35.8599 29.7111 35.2824 31.2527 34.2837V36.2906C30.1405 37.2424 27.8963 38.8147 25.9538 38.8147C24.0148 38.8147 21.7931 37.2451 20.6945 36.2953V34.3095ZM33.1277 17.8772C31.0048 17.5031 29.3872 15.6589 29.3872 13.4455H26.4576C26.4576 15.9281 24.4233 17.9478 21.9228 17.9478H18.7799V16.5461C18.7799 12.6187 21.9981 9.42359 25.9538 9.42359C29.9095 9.42359 33.1277 12.6187 33.1277 16.5461V17.8772ZM18.7799 20.9578V20.8566H21.9228C24.3787 20.8566 26.5613 19.6729 27.9224 17.8501C29.1348 19.4739 30.999 20.5903 33.1277 20.8149V25.2758C33.1277 25.8474 33.0671 26.4038 32.9559 26.9401H27.6349V29.8487H31.7117C30.403 31.7301 28.3094 32.9512 25.9539 32.9512C21.9983 32.9512 18.78 29.5081 18.78 25.2758V20.9578H18.7799ZM39.137 22.97C39.137 23.4127 38.7742 23.7729 38.3283 23.7729H36.0573V18.192H38.3283C38.7742 18.192 39.137 18.5521 39.137 18.9948V22.97ZM25.9538 3.80024C32.54 3.80024 37.9559 8.87066 38.4493 15.2863C38.4091 15.2851 38.3689 15.2833 38.3283 15.2833H35.9774C35.3501 10.346 31.0942 6.51496 25.9538 6.51496C20.8134 6.51496 16.5575 10.346 15.9301 15.2833H13.5792C13.5387 15.2833 13.4984 15.2851 13.4582 15.2863C13.9517 8.87066 19.3676 3.80024 25.9538 3.80024ZM12.7706 22.97V18.9948C12.7706 18.5521 13.1334 18.192 13.5793 18.192H15.8503V23.7729H13.5793C13.1334 23.7729 12.7706 23.4127 12.7706 22.97ZM48.0234 47.6237H40.8668V44.6181H37.9372V47.6237H13.9704V44.6181H11.0408V47.6237H3.88418V45.2068C3.88418 44.1594 4.5577 43.2365 5.5602 42.9102L18.8775 38.5761C20.1411 39.646 22.9769 41.7233 25.9539 41.7233C28.9245 41.7233 31.7783 39.653 33.0543 38.5839L46.3475 42.9103C47.3499 43.2365 48.0234 44.1595 48.0234 45.2068V47.6237Z" fill="#888888"></path>
    </g>
    <defs>
      <clipPath id="clip0_3_592">
        <rect width="49.9984" height="49.6407" fill="white" transform="translate(0.95459 0.891602)"></rect>
      </clipPath>
    </defs>
  </symbol>
</svg>